#N canvas 312 233 1000 698 10;
#X obj 49 514 netsend -u -b;
#X msg 101 477 disconnect;
#X text 99 430 1: connect;
#N canvas 175 235 1281 626 sub1 0;
#X text 114 198 3: Control parameters:;
#X floatatom 117 149 5 0 0 0 - - -;
#X obj 117 171 s source;
#X obj 310 639 list trim;
#X obj 310 612 list prepend send;
#X obj 416 478 r source;
#X obj 401 531 pack i f, f 13;
#X floatatom 712 329 5 0 0 0 - - -;
#X obj 401 504 i;
#X obj 401 446 t b f, f 13;
#X obj 111 472 r source;
#X obj 96 525 pack i f, f 13;
#X floatatom 418 362 5 0 0 0 - - -;
#X obj 96 498 i;
#X obj 96 440 t b f, f 13;
#X obj 255 476 r source;
#X obj 240 529 pack i f, f 13;
#X floatatom 419 295 5 0 0 0 - - -;
#X obj 240 502 i;
#X obj 240 444 t b f, f 13;
#X obj 935 508 r source;
#X obj 920 561 pack i f, f 13;
#X floatatom 694 374 5 0 0 0 - - -;
#X obj 920 534 i;
#X obj 920 476 t b f, f 13;
#X text 124 124 2: Set source to control (0...16);
#X obj 310 662 outlet;
#X obj 112 349 hsl 300 35 0 3 0 0 empty empty W_AZIM -2 -8 0 10 -262144
-1 -1 0 1;
#X obj 113 285 hsl 300 35 0 3 0 0 empty empty W_ELEV -2 -8 0 10 -262144
-1 -1 0 1;
#X obj 488 366 hsl 200 30 0 0.7 0 0 empty empty Samplelenght -2 -8
0 10 -262144 -1 -1 0 1;
#X obj 712 123 vsl 30 200 0 1 0 0 empty empty Dry/Wet 0 -9 0 10 -262144
-1 -1 0 1;
#X obj 548 477 r source;
#X obj 533 530 pack i f, f 13;
#X floatatom 601 331 5 0 0 0 - - -;
#X obj 533 503 i;
#X obj 533 445 t b f, f 13;
#X obj 730 476 r source;
#X obj 715 529 pack i f, f 13;
#X floatatom 489 332 5 0 0 0 - - -;
#X obj 715 502 i;
#X obj 715 444 t b f, f 13;
#X obj 901 581 oscformat source samplelen;
#X obj 401 567 oscformat source wet;
#X obj 678 570 oscformat source delaytime;
#X obj 533 566 oscformat source fb;
#X obj 489 125 vsl 30 200 0 1 0 0 empty empty Delaytime 0 -9 0 10 -262144
-1 -1 0 1;
#X obj 601 124 vsl 30 200 0 3 0 0 empty empty Feedback 0 -9 0 10 -262144
-1 -1 0 1;
#X text 527 313 0s;
#X text 524 120 1s;
#X text 637 315 0;
#X text 637 119 3;
#X text 746 120 1;
#X text 747 312 0;
#X text 379 192 DELAY SECTION;
#X obj 96 561 oscformat source w_azim;
#X obj 243 565 oscformat source w_elev;
#X text 160 269 [0 \, 3]Hz;
#X text 158 332 [0 \, 3]Hz;
#X text 107 243 SPATIAL SECTION for all sources;
#X text 560 350 [0 \, 0.7]s;
#X connect 1 0 2 0;
#X connect 3 0 26 0;
#X connect 4 0 3 0;
#X connect 5 0 8 1;
#X connect 6 0 42 0;
#X connect 7 0 9 0;
#X connect 8 0 6 0;
#X connect 9 0 8 0;
#X connect 9 1 6 1;
#X connect 10 0 13 1;
#X connect 11 0 54 0;
#X connect 12 0 14 0;
#X connect 13 0 11 0;
#X connect 14 0 13 0;
#X connect 14 1 11 1;
#X connect 15 0 18 1;
#X connect 16 0 55 0;
#X connect 17 0 19 0;
#X connect 18 0 16 0;
#X connect 19 0 18 0;
#X connect 19 1 16 1;
#X connect 20 0 23 1;
#X connect 21 0 41 0;
#X connect 22 0 24 0;
#X connect 23 0 21 0;
#X connect 24 0 23 0;
#X connect 24 1 21 1;
#X connect 27 0 12 0;
#X connect 28 0 17 0;
#X connect 29 0 22 0;
#X connect 30 0 7 0;
#X connect 31 0 34 1;
#X connect 32 0 44 0;
#X connect 33 0 35 0;
#X connect 34 0 32 0;
#X connect 35 0 34 0;
#X connect 35 1 32 1;
#X connect 36 0 39 1;
#X connect 37 0 43 0;
#X connect 38 0 40 0;
#X connect 39 0 37 0;
#X connect 40 0 39 0;
#X connect 40 1 37 1;
#X connect 41 0 4 0;
#X connect 42 0 4 0;
#X connect 43 0 4 0;
#X connect 44 0 4 0;
#X connect 45 0 38 0;
#X connect 46 0 33 0;
#X connect 54 0 4 0;
#X connect 55 0 4 0;
#X coords 0 -1 1 1 700 300 2 100 100;
#X restore 40 54 pd sub1;
#N canvas 1 119 556 457 default 0;
#X obj 128 259 list trim;
#X obj 128 232 list prepend send;
#X obj 128 282 outlet;
#X text 108 112 all sources default;
#X obj 146 139 bng 33 250 50 0 empty empty empty 17 7 0 10 -258113
-1 -1;
#X obj 128 199 oscformat default_source_positions;
#X connect 0 0 2 0;
#X connect 1 0 0 0;
#X connect 4 0 5 0;
#X connect 5 0 1 0;
#X coords 0 -1 1 1 133 88 2 100 100;
#X restore 470 426 pd default;
#X msg 101 449 connect 85.214.78.6 57120;
#X text 8 7 patch for controlling properties of a sound on the SPRAWL
server.;
#X msg 96 397 connect localhost 57120;
#X connect 1 0 0 0;
#X connect 3 0 0 0;
#X connect 4 0 0 0;
#X connect 5 0 0 0;
#X connect 7 0 0 0;
