#N canvas -1931 64 1000 698 10;
#X text 8 7 Example patch for controlling spatial properties of a sound
on the SPRAWL server.;
#X obj 49 514 netsend -u -b;
#X msg 101 477 disconnect;
#X text 99 430 1: connect;
#N canvas -1893 69 1281 626 sub1 1;
#X text 107 193 Set azimuth;
#X text 321 168 3: Control parameters:;
#X floatatom 117 149 5 0 0 0 - - -;
#X obj 117 171 s source;
#X obj 310 639 list trim;
#X obj 310 612 list prepend send;
#X obj 96 561 oscformat source azim;
#X obj 247 564 oscformat source elev;
#X obj 416 478 r source;
#X obj 401 531 pack i f, f 13;
#X floatatom 401 424 5 0 0 0 - - -;
#X obj 401 504 i;
#X obj 401 446 t b f, f 13;
#X obj 111 472 r source;
#X obj 96 525 pack i f, f 13;
#X floatatom 96 418 5 0 0 0 - - -;
#X obj 96 498 i;
#X obj 96 440 t b f, f 13;
#X obj 255 476 r source;
#X obj 240 529 pack i f, f 13;
#X floatatom 240 422 5 0 0 0 - - -;
#X obj 240 502 i;
#X obj 240 444 t b f, f 13;
#X obj 935 508 r source;
#X obj 920 561 pack i f, f 13;
#X floatatom 920 454 5 0 0 0 - - -;
#X obj 920 534 i;
#X obj 920 476 t b f, f 13;
#X text 124 124 2: Set source to control (0...16);
#X obj 310 662 outlet;
#X obj 112 335 hsl 400 50 -3 3 0 0 empty empty AZI -2 -8 0 10 -262144
-1 -1 19000 1;
#X obj 166 270 hsl 128 15 -3 3 0 0 empty empty ELEV -2 -8 0 10 -262144
-1 -1 8000 1;
#X obj 446 238 hsl 128 15 0 1 0 0 empty empty Samplelenght -2 -8 0
10 -262144 -1 -1 5819 1;
#X obj 665 175 vsl 30 200 0 1 0 0 empty empty Dry/Wet 0 -9 0 10 -262144
-1 -1 16600 1;
#X obj 548 477 r source;
#X obj 533 530 pack i f, f 13;
#X floatatom 533 423 5 0 0 0 - - -;
#X obj 533 503 i;
#X obj 533 445 t b f, f 13;
#X obj 730 476 r source;
#X obj 715 529 pack i f, f 13;
#X floatatom 715 422 5 0 0 0 - - -;
#X obj 715 502 i;
#X obj 715 444 t b f, f 13;
#X obj 901 581 oscformat source samplelen;
#X obj 401 567 oscformat source wet;
#X obj 678 570 oscformat source delaytime;
#X obj 533 566 oscformat source fb;
#X obj 731 175 vsl 15 128 0 1 0 0 empty empty Delaytime 0 -9 0 10 -262144
-1 -1 2965 1;
#X obj 602 188 vsl 15 128 0 3 0 0 empty empty Feedback 0 -9 0 10 -262144
-1 -1 5000 1;
#X connect 2 0 3 0;
#X connect 4 0 29 0;
#X connect 5 0 4 0;
#X connect 6 0 5 0;
#X connect 7 0 5 0;
#X connect 8 0 11 1;
#X connect 9 0 45 0;
#X connect 10 0 12 0;
#X connect 11 0 9 0;
#X connect 12 0 11 0;
#X connect 12 1 9 1;
#X connect 13 0 16 1;
#X connect 14 0 6 0;
#X connect 15 0 17 0;
#X connect 16 0 14 0;
#X connect 17 0 16 0;
#X connect 17 1 14 1;
#X connect 18 0 21 1;
#X connect 19 0 7 0;
#X connect 20 0 22 0;
#X connect 21 0 19 0;
#X connect 22 0 21 0;
#X connect 22 1 19 1;
#X connect 23 0 26 1;
#X connect 24 0 44 0;
#X connect 25 0 27 0;
#X connect 26 0 24 0;
#X connect 27 0 26 0;
#X connect 27 1 24 1;
#X connect 30 0 15 0;
#X connect 31 0 20 0;
#X connect 32 0 25 0;
#X connect 33 0 10 0;
#X connect 34 0 37 1;
#X connect 35 0 47 0;
#X connect 36 0 38 0;
#X connect 37 0 35 0;
#X connect 38 0 37 0;
#X connect 38 1 35 1;
#X connect 39 0 42 1;
#X connect 40 0 46 0;
#X connect 41 0 43 0;
#X connect 42 0 40 0;
#X connect 43 0 42 0;
#X connect 43 1 40 1;
#X connect 44 0 5 0;
#X connect 45 0 5 0;
#X connect 46 0 5 0;
#X connect 47 0 5 0;
#X connect 48 0 41 0;
#X connect 49 0 36 0;
#X coords 0 -1 1 1 700 300 2 100 100;
#X restore 29 44 pd sub1;
#N canvas 1 119 450 300 default 0;
#X obj 128 259 list trim;
#X obj 128 232 list prepend send;
#X obj 128 282 outlet;
#X text 108 112 all sources default;
#X obj 146 139 bng 33 250 50 0 empty empty empty 17 7 0 10 -258113
-1 -1;
#X obj 128 199 oscformat default_source_positions;
#X connect 0 0 2 0;
#X connect 1 0 0 0;
#X connect 4 0 5 0;
#X connect 5 0 1 0;
#X coords 0 -1 1 1 133 88 2 100 100;
#X restore 470 426 pd default;
#X msg 101 449 connect 85.214.78.6 57120;
#X msg 96 396 connect localhost 57120;
#X connect 2 0 1 0;
#X connect 4 0 1 0;
#X connect 5 0 1 0;
#X connect 6 0 1 0;
#X connect 7 0 1 0;
